<svg xmlns="http://www.w3.org/2000/svg" width="17" height="14" viewBox="0 0 17 14" fill="none">
    <path d="M7.58479 0.205286C7.65064 0.270292 7.70289 0.347491 7.73853 0.432464C7.77418 0.517437 7.79253 0.608519 7.79253 0.700502C7.79253 0.792487 7.77418 0.883572 7.73853 0.968544C7.70289 1.05352 7.65064 1.13071 7.58479 1.19572L2.41855 6.30013L16.2917 6.30013C16.4795 6.30013 16.6597 6.37387 16.7925 6.50514C16.9254 6.6364 17 6.81444 17 7.00008C17 7.18572 16.9254 7.36376 16.7925 7.49502C16.6597 7.62629 16.4795 7.70003 16.2917 7.70003L2.41855 7.70003L7.58479 12.8044C7.7177 12.9358 7.79236 13.1139 7.79236 13.2997C7.79236 13.4854 7.7177 13.6635 7.58479 13.7949C7.45188 13.9262 7.27162 14 7.08366 14C6.8957 14 6.71544 13.9262 6.58253 13.7949L0.207738 7.4953C0.141882 7.43029 0.0896375 7.35309 0.0539923 7.26812C0.0183471 7.18315 0 7.09207 0 7.00008C0 6.9081 0.0183471 6.81701 0.0539923 6.73204C0.0896375 6.64707 0.141882 6.56987 0.207738 6.50486L6.58253 0.205286C6.64831 0.140206 6.72643 0.0885782 6.81242 0.0533543C6.89841 0.0181293 6.99058 0 7.08366 0C7.17674 0 7.26891 0.0181293 7.3549 0.0533543C7.44089 0.0885782 7.51901 0.140206 7.58479 0.205286Z" fill="#8554D8"/>
</svg>