<svg xmlns="http://www.w3.org/2000/svg" width="18" height="18" viewBox="0 0 18 18" fill="none">
    <g clip-path="url(#clip0_524_2342)">
        <path d="M13.2098 11.6367C14.2992 10.1503 14.7871 8.3073 14.5759 6.47654C14.3648 4.64578 13.4702 2.96225 12.0711 1.76277C10.672 0.563283 8.87156 -0.0636991 7.03003 0.00725815C5.18851 0.0782154 3.44168 0.841879 2.13902 2.14547C0.836365 3.44906 0.0739514 5.19643 0.00431182 7.03801C-0.0653277 8.87959 0.562943 10.6796 1.76343 12.0778C2.96391 13.476 4.64808 14.3694 6.47899 14.5793C8.3099 14.7891 10.1525 14.2999 11.6382 13.2095H11.6371C11.6708 13.2545 11.7068 13.2972 11.7473 13.3389L16.0786 17.6701C16.2895 17.8812 16.5757 17.9999 16.8741 18C17.1726 18.0001 17.4588 17.8816 17.6699 17.6707C17.881 17.4597 17.9997 17.1736 17.9998 16.8751C17.9999 16.5767 17.8814 16.2905 17.6705 16.0794L13.3392 11.7481C13.299 11.7074 13.2557 11.6709 13.2098 11.6367ZM13.5001 7.31225C13.5001 8.1248 13.34 8.9294 13.0291 9.6801C12.7181 10.4308 12.2624 11.1129 11.6878 11.6875C11.1133 12.262 10.4312 12.7178 9.68045 13.0288C8.92975 13.3397 8.12515 13.4997 7.31259 13.4997C6.50004 13.4997 5.69544 13.3397 4.94474 13.0288C4.19404 12.7178 3.51193 12.262 2.93737 11.6875C2.36281 11.1129 1.90704 10.4308 1.59609 9.6801C1.28514 8.9294 1.12509 8.1248 1.12509 7.31225C1.12509 5.67122 1.77699 4.0974 2.93737 2.93702C4.09775 1.77664 5.67157 1.12475 7.31259 1.12475C8.95362 1.12475 10.5274 1.77664 11.6878 2.93702C12.8482 4.0974 13.5001 5.67122 13.5001 7.31225Z" fill="#010101" fill-opacity="0.3"/>
    </g>
    <defs>
        <clipPath id="clip0_524_2342">
            <rect width="18" height="18" fill="white"/>
        </clipPath>
    </defs>
</svg>